G04*
G04 #@! TF.GenerationSoftware,Altium Limited,Altium Designer,22.2.1 (43)*
G04*
G04 Layer_Color=65535*
%FSLAX25Y25*%
%MOIN*%
G70*
G04*
G04 #@! TF.SameCoordinates,6C260533-CC90-43CD-92D9-51A3DE8ADA06*
G04*
G04*
G04 #@! TF.FilePolarity,Positive*
G04*
G01*
G75*
%ADD10C,0.00787*%
%ADD11C,0.01000*%
%ADD12C,0.00600*%
D10*
X10708Y88921D02*
G03*
X10708Y88921I-394J0D01*
G01*
X40787Y91835D02*
Y93606D01*
X36496Y91835D02*
X40787D01*
X6693D02*
X10984D01*
X6693D02*
Y93606D01*
Y101087D02*
Y102858D01*
X10984D01*
X36496D02*
X40787D01*
Y101087D02*
Y102858D01*
D11*
X25565Y83467D02*
X33465D01*
X25565Y89567D02*
X33465D01*
Y83467D02*
Y89567D01*
X25565Y83467D02*
Y89567D01*
X13754Y83467D02*
X21654D01*
X13754Y89567D02*
X21654D01*
Y83467D02*
Y89567D01*
X13754Y83467D02*
Y89567D01*
X3648Y45164D02*
X43648D01*
X3648Y8195D02*
X43648D01*
X3648D02*
Y45164D01*
X43648Y8195D02*
Y45164D01*
D12*
X42400Y5317D02*
X45066D01*
X43733Y6650D02*
Y3984D01*
X34600Y75784D02*
Y71785D01*
X36599D01*
X37266Y72452D01*
Y75117D01*
X36599Y75784D01*
X34600D01*
X38599Y71785D02*
Y75784D01*
X40598D01*
X41265Y75117D01*
Y73784D01*
X40598Y73118D01*
X38599D01*
X39932D02*
X41265Y71785D01*
X42597D02*
Y75784D01*
X45263Y71785D01*
Y75784D01*
X5169Y81684D02*
Y78352D01*
X5835Y77686D01*
X7168D01*
X7835Y78352D01*
Y81684D01*
X11834Y81018D02*
X11167Y81684D01*
X9834D01*
X9168Y81018D01*
Y80352D01*
X9834Y79685D01*
X11167D01*
X11834Y79019D01*
Y78352D01*
X11167Y77686D01*
X9834D01*
X9168Y78352D01*
X13167Y81684D02*
Y77686D01*
X15166D01*
X15832Y78352D01*
Y79019D01*
X15166Y79685D01*
X13167D01*
X15166D01*
X15832Y80352D01*
Y81018D01*
X15166Y81684D01*
X13167D01*
X19831Y81018D02*
X19164Y81684D01*
X17832D01*
X17165Y81018D01*
Y78352D01*
X17832Y77686D01*
X19164D01*
X19831Y78352D01*
X17831Y2985D02*
Y6317D01*
X17165Y6984D01*
X15832D01*
X15165Y6317D01*
Y2985D01*
X11167Y3651D02*
X11833Y2985D01*
X13166D01*
X13832Y3651D01*
Y4318D01*
X13166Y4984D01*
X11833D01*
X11167Y5651D01*
Y6317D01*
X11833Y6984D01*
X13166D01*
X13832Y6317D01*
X9833Y2985D02*
Y6984D01*
X7834D01*
X7168Y6317D01*
Y5651D01*
X7834Y4984D01*
X9833D01*
X7834D01*
X7168Y4318D01*
Y3651D01*
X7834Y2985D01*
X9833D01*
X5835Y6984D02*
Y4318D01*
X4502Y2985D01*
X3169Y4318D01*
Y6984D01*
Y4984D01*
X5835D01*
M02*
