G04*
G04 #@! TF.GenerationSoftware,Altium Limited,Altium Designer,22.2.1 (43)*
G04*
G04 Layer_Color=16711935*
%FSLAX25Y25*%
%MOIN*%
G70*
G04*
G04 #@! TF.SameCoordinates,6C260533-CC90-43CD-92D9-51A3DE8ADA06*
G04*
G04*
G04 #@! TF.FilePolarity,Positive*
G04*
G01*
G75*
%ADD11C,0.01000*%
%ADD12C,0.00600*%
%ADD43C,0.00000*%
D11*
X47500Y116142D02*
X53500Y118142D01*
X47500Y116142D02*
X53500Y114142D01*
X-6000D02*
X0Y116142D01*
X-6000Y118142D02*
X0Y116142D01*
X47500D02*
X57500D01*
X-10000D02*
X0D01*
Y110185D02*
Y117142D01*
X47500Y110185D02*
Y117142D01*
X-13000Y109185D02*
X-11000Y103185D01*
X-15000D02*
X-13000Y109185D01*
X-15000Y6000D02*
X-13000Y0D01*
X-11000Y6000D01*
X-13000Y74086D02*
Y109185D01*
Y0D02*
Y31899D01*
X-14000Y109185D02*
X-1000D01*
X-14000Y0D02*
X-1000D01*
D12*
X3156Y123340D02*
X5156D01*
X4156D01*
Y129338D01*
X3156Y128338D01*
X12153Y123340D02*
X8155D01*
X12153Y127339D01*
Y128338D01*
X11153Y129338D01*
X9154D01*
X8155Y128338D01*
X14153Y123340D02*
Y124339D01*
X15152D01*
Y123340D01*
X14153D01*
X19151Y128338D02*
X20151Y129338D01*
X22150D01*
X23150Y128338D01*
Y124339D01*
X22150Y123340D01*
X20151D01*
X19151Y124339D01*
Y128338D01*
X25149Y129338D02*
X29148D01*
Y128338D01*
X25149Y124339D01*
Y123340D01*
X31147D02*
Y127339D01*
X32147D01*
X33146Y126339D01*
Y123340D01*
Y126339D01*
X34146Y127339D01*
X35146Y126339D01*
Y123340D01*
X37145D02*
Y127339D01*
X38145D01*
X39145Y126339D01*
Y123340D01*
Y126339D01*
X40144Y127339D01*
X41144Y126339D01*
Y123340D01*
X-9401Y37497D02*
Y33499D01*
X-13400Y37497D01*
X-14399D01*
X-15399Y36498D01*
Y34499D01*
X-14399Y33499D01*
X-15399Y39497D02*
Y43496D01*
X-14399D01*
X-10401Y39497D01*
X-9401D01*
Y45495D02*
X-10401D01*
Y46495D01*
X-9401D01*
Y45495D01*
X-15399Y50493D02*
Y54492D01*
X-14399D01*
X-10401Y50493D01*
X-9401D01*
X-14399Y56491D02*
X-15399Y57491D01*
Y59490D01*
X-14399Y60490D01*
X-13400D01*
X-12400Y59490D01*
Y58491D01*
Y59490D01*
X-11400Y60490D01*
X-10401D01*
X-9401Y59490D01*
Y57491D01*
X-10401Y56491D01*
X-9401Y62489D02*
X-13400D01*
Y63489D01*
X-12400Y64489D01*
X-9401D01*
X-12400D01*
X-13400Y65488D01*
X-12400Y66488D01*
X-9401D01*
Y68488D02*
X-13400D01*
Y69487D01*
X-12400Y70487D01*
X-9401D01*
X-12400D01*
X-13400Y71487D01*
X-12400Y72486D01*
X-9401D01*
D43*
X0Y0D02*
Y109185D01*
Y0D02*
X47500D01*
Y109185D01*
X0D02*
X47500D01*
M02*
